<?xml version="1.0" encoding="UTF-8"?>
<svg id="Layer_2" data-name="Layer 2" xmlns="http://www.w3.org/2000/svg" viewBox="0 0 159.82 160.76">
  <defs>
    <style>
      .cls-1 {
        fill: #202020;
      }
    </style>
  </defs>
  <g id="Outline">
    <g id="Square_Default" data-name="Square Default">
      <g>
        <path class="cls-1" d="M142.39,143.66c-.3.69-.02,2.25.38,1.92.04-.87,0-1.78-.08-2.66-.06.27-.17.48-.3.74Z"/>
        <path class="cls-1" d="M146.99,146.99c-.04-.77-.35-1.71-.97-2.55-.61-.86-1.52-1.6-2.46-2.37.88.96.99,1.31,1.19,1.74.15.41.39.88.9,2.35-.17.3-.52.24-.82-.04-.31-.27-.57-.73-.73-1.19.07.35-.16.26-.33.31-.18.03-.32.16-.28,1.02.54.93,1.22,1.3,1.74,1.13.51-.16.87-.83.72-1.81.54.33.8.99,1.04,1.42Z"/>
        <path class="cls-1" d="M154.1,72.3l-.31.49c.17-.13.27-.3.31-.49Z"/>
        <path class="cls-1" d="M155.55,25.2c.06.36.33.51.57.53-.17-.33-.34-.61-.57-.53Z"/>
        <path class="cls-1" d="M157.09,13.11c.02.29.07.51.1.76.12-.37.13-.7-.1-.76Z"/>
        <path class="cls-1" d="M154.1,72.3l.83-1.26c-.86-.09-.64.64-.83,1.26Z"/>
        <path class="cls-1" d="M143.58,137.83c.13.26.38.48.7.68-.12-.22-.21-.43-.28-.64-.13-.01-.25-.02-.42-.04Z"/>
        <path class="cls-1" d="M156.24,93.06v.38c.3.11.67.22,1.08.32l-1.08-.7Z"/>
        <path class="cls-1" d="M156.65,108.99c.1-.36-2.15-.49-3.13-.62.93.2,1.37.47,1.54.79.43,0,.94-.04,1.59-.16Z"/>
        <path class="cls-1" d="M152.7,134.26l.31.45c-.1-.12-.19-.31-.31-.45Z"/>
        <path class="cls-1" d="M156.73,81.65c.33-.03.63-.08.8-.15-.28,0-.55.06-.8.15Z"/>
        <path class="cls-1" d="M123.92,138.43c-.01.16,0,.26,0,.4.09-.23.12-.39,0-.4Z"/>
        <path class="cls-1" d="M142.39,149.56l-.26.12c-.03.43-.06.84-.06,1.26l.31-1.38Z"/>
        <path class="cls-1" d="M138.2.57c.05.03.07.03.12.04.73-.26.32-.21-.12-.04Z"/>
        <path class="cls-1" d="M3.64,25.16c2.01-1.53,2.58,2.49,4.81.19-.44.11-1.32-.42-2.25-.73-.47-.13-.94-.33-1.39-.24-.44.13-.85.29-1.18.78Z"/>
        <path class="cls-1" d="M143.88,137.42c-.03-.22-.04-.43-.02-.65-.07.3-.07.5.02.65Z"/>
        <path class="cls-1" d="M8.45,25.35h.02l.21-.24c-.09.1-.15.15-.23.24Z"/>
        <path class="cls-1" d="M103.95,1.93c.07.4.2.7.35.98-.01-.23-.09-.51-.35-.98Z"/>
        <path class="cls-1" d="M129.21,5.13l-.62-.3c.25.2.45.28.62.3Z"/>
        <path class="cls-1" d="M90.83,5.1c-.34-.17-.46-.48-.92-.18.04.11.09.19.14.27.17-.31.39-.45.78-.09Z"/>
        <path class="cls-1" d="M77.18,5.11c.07.17.17.3.25.45.14-.04.29-.08.43-.12l-.68-.33Z"/>
        <path class="cls-1" d="M82.43,139.51c.3.63.49,1.33.63,2.02-.21-1.6,1.8-2.17-.63-2.02Z"/>
        <path class="cls-1" d="M144.85,137.82c-.57-.08-.85-.2-.97-.41.03.16.07.31.12.45.33.04.65.05.85-.05Z"/>
        <path class="cls-1" d="M90.27,22.84l-2.17-.33c.61.22,1.39.33,2.17.33Z"/>
        <path class="cls-1" d="M22.1,117.09l.27.5c.05-.19-.01-.37-.27-.5Z"/>
        <path class="cls-1" d="M81.67,22.84c-.39-.79-.8-1.25-1.22-1.55-.09.18-.19.32-.25.58l1.47.97Z"/>
        <path class="cls-1" d="M83.06,141.55s0-.02,0-.02c0,0,0,.02,0,.02Z"/>
        <path class="cls-1" d="M97.35,136.21c-2.07-.06-.97,2.89-1.41,4.59-2.47.84-1.14-2.17-1.98-3.69-1.54.78-2.72,3.5-3.87,3.38-.09-.49-.31-.66-.05-1.27-1.63,2.35-4.83.12-6.73,3.07-.14-.26-.21-.51-.25-.73.31,1.48.35,2.99.29,4.06-.93.05-1.72,1.87-2.07-.06.57.06.62-.72.88-1.33l-.97.84c-.87-2.78,1.33-.96,1.33-3.01-1.89.9-4.1,3.2-5.55,2.42-.3-2.72,3.39-.91,1.46-3.33l2.24,1.04c-1.72-4.29,1.36.3-.21-4.29-2.95-.79-3.3,1.38-6.25.59-.66,1.51.22,2.23-.44,3.74-4.19,2.71-3.3-6.83-6.38-3.21-.8,1.81-1.11,5.25-3.3,3.43l.75-3.07c-2.86-.3-1.63,4.42-4.63,2.35.53-1.21,2.25-1.02,1.82-1.38-1.94-2.43-1.37,1.74-2.86,1.74l-.31-2.72c-3.04.43-6.4,2.39-9.77,2.89.19-.81.76-1.66-.02-2.49-4.25,1.36-9.08-.33-13.18-1.95l-1.57,2.35c-.36-.03-.68-1.06-.28-1.52-1.6-.89-.08,1.49-.85,2.41-.91.16-1.2-1.35-.63-2.05-1.41,1-3.42,2.07-5.45,2.58-.25.06-.51.12-.76.16l-.38.06c-.15.02-.14.03-.21.04-.22.05-.45.05-.66,0-.41-.11-.74-.44-.8-1.06.15-.23.29-.47.41-.7-.18-.48-.8.74-1.61,1.73-.76,1.01-1.71,1.77-1.54.49l.45-.31c-.4-.48-.82-.88-1.21-1.33-.38-.45-.7-.96-.81-1.53-.12-.57.04-1.19.34-1.75.31-.58.84-1.02,1.73-1.4-3.38-.73,1.51-4.97-3.21-5.3,2.34-2.87,3.18-2.05,4.75-6.09.22-1.08-2.95-1.61-3.44-2.94l2.46-.03-2.59-1.81,2.95-.96-.63-1.25c-.15.5-1.11,1.06-1.82.98-1.12-1.95,1.72-4.76,2.98-4.81l-2.09-4.62c.99.1,1.33.88,1.96,1.49-2.52-2.47,2.6-.45.29-2.71-.56.3-1.47-.16-1.97-.22,1.49-1.13,1.5-3.69.88-5.59l1.7.36c.43-3.43-.81-7.23-.78-11.08-.79,1.38-3.74,1.06-4.02-.07l2.61-.45c-1.61-.73-.98,1.18-2.96-.32.3-1.44,2.96-.97,3.81-.14l-.9-1.75c.78-.1,1.19.31,2.18.41-1.62-.72,2.62-3.02-.2-4.05l.78-.1c.02-3.85-.88-5.59-1.01-8.73-2.25-.06-1.75-1.29-3.57-2.22.72-2.3,2.49-4.86,2.3-7.63-1.12-1.95-1.9-.57-3.24-1.45,2.05-.14,1.86-2.92,3.33-1.48-.33-3.33-.41-4.25-2.07-8.47-.84.46-1.2.97-1.9.7-.34-.76.86-1.74,1.84-1.63l.21.2c-3.07-4.73,5.97-10.91,1.7-14.68l.21.21-2.22-3.9c.35-1.8,1.54,1.08,2.81-.25-3.42-4.21.49-6.65-1.78-10.12.38-.17.71-.35.99-.55.14-.1.27-.2.4-.31.06-.05.12-.12.18-.15l.16-.04c.41-.09.67-.15.82-.21.3-.11.18-.26,0-.53-.19-.25-.38-.64-.24-.81.13-.17.59-.09,1.38.7l-1.12-1.21c-.89-1.35.8.58,1.04.87-.72-1.04-1.03-1.08-1.46-1.86.07-.33.28-.55.54-.65.26-.1.58-.07.89,0,.31.07.62.19.89.35.98.16,2.04.36,3.06.59,4.12.9,8.26,2.17,12.33,2.81,2.98.38,1.69-7.36,5.44-3.97l-1.06,2.64c6-3.17,12.28.11,18.15-2.58-.35.61-.36,1.4-.93,1.39,1.24,1.92,4.59.09,4.61-1.47.92.18.21,1.42.78,2.21,1.25,1.13,3.13-2.45,3.79-.54.11.31-.35.62-.58.77.81-.93,3.78.24,3-1.98,2.21,1.06,4.22-.98,5.98.33,1.15-2.48,3.78,1.19,4.14-2.31-.16,3.62,3.87,2.92,5.26,1.22-.47,1.09,1.21,1.13.67,2.65,1.59-.05,3.05-.72,2.77-2.58,2.93,4.33,5.89-3.48,7.55,2.06,4.73-1.94,9.1-3.26,13.36-4.11-.15,3.61-4.7.36-4.52,4.15,4.04-1.49,6.36-4.58,10.36-3.71,1.04.49-.59,1.57-.94,2.18,4.03-1.49,7.79.33,11.38-1.64,0,.34-.4.7-.76.98.71-.12,1.64.53,1.56-1.11l-.69.45c-1.13-2.38,2.81-4.97,2.93-6.23-1.2,4.7,3.54,1.18,1.64,7.12.47-.31,1.05-1.09.94-2.18.69.32.91.96.21,2.21.32-.11.58-.24.8-.37.11-.07.21-.14.3-.21.06-.07.07-.14.11-.21.12-.29.22-.59.32-.86.2-.54.44-.97,1.03-.95-.18.8-.46,1.1-.69,2.04.33-.77.78-1.55,1.28-2.04.49-.49,1.07-.74,1.43-.31-.29.46-.49,1.1-.75,1.05.79-.03,2.07-.75,3.42-.88.65-.06,1.3.01,1.75.34.44.33.68.9.49,1.69-1.78.65-1.98,1.03-2.15,1.36-.15.34-.29.73-1.77,1.42.31.09.61.23.91.41.48-.25.97-.53,1.45-.84-.03.45.51.73.92,1.13.42.4.71.86.23,1.39-.41-.34-.82-.51-1.23-.71l.14.41c.02.08.05.13.07.23l.07.4.28,1.61,1.13-1.82c1.54,1.74,3.78-.19,2.95,2.1-.31-.47-.04,1.72-1.8,2.62,0,0,0,0,0,0,.95.85,1.95,1.73,1.21,3-.96.33-3.3-.27-3.94-.05,2.5.84.69,4.03,3.35,5.09-.62-.35-2.19-.37-2.51-.26l2.03.7c-.65.8-.96.91-2.21.78-.37,2.4,3.79-.76,2.16,2.08-.16-.22-.47-.12-.78-.58-.85,2.86,1.29,5.52.29,8.15-3.01.77-.74-2.29-3.27-1.41.54,3.79,3.6,7.84,2.89,11.5l.33-.68c4.24.51-2.1,2.73-.1,4.58-.31-.45-2.35-.59-1.88-.47-.68,2.51,1.04,5.13,2.38,8.93l-1.09-.47c-.97,1.48-.56,3.89-1.06,5.49,1.09.47.91,1.39,2.5.83-6.21,4.92,3.33,9.39-1.84,13.76-.01-.52-.95-1.25-.96-.83l1.01,3.72c1.85-.29,1.12-.49,2.56-1.27,1.1.47,1.95,1.52,1.95,2.44-1.22-1.67-2.97.01-4,.74.57-.12,1.19.13,1.77.07-3.29,1.94,3.72.33,1.5,2.98l-.97-.14c.5.99,1.78,1.91,1.5,2.98-2.14.44-1-1.06-2.76-1.13.12,1.5,4.05,2.97,1.92,4.33-.6-.64-.61-1.56-1.2-2.2-2.51,1.48-1.87,1.66-2.27,2.76l.06-.11-1.14,2.55.68-.65c5.57,1.88,1.02,3.83,4.67,6.37-3.46-2.47-2-.41-4.42-.6-.67.65-1.43,1.63-2.11,1.35,1.96,1.2-1.54,2,1.32,3.69-.78.08-.08,1.28-2.04,1.01.61,1.56,1.36-.37,2.34-.24,2.66,2.4-3.23,5.65.42,9.1,1.51,2.98,4.14,3.53,5.45,6.3-1.25.93-2.84-.76-2.84-.76-1.15,1.51-.94,2.64-.04,4.06-.68-.29-1.26,0-2.13.44.2,1.14,2.84.76,1.69,2.26-.87-.26-2.26-.59-3.13-1.14.36.67.9,1.34,1.44,2.01.13.16.27.36.4.48.12.08.25.17.37.27.26.2.41.41.57.65-.68-.03-1.16-.27-1.6-.46-.42-.19-.82-.36-1.26-.43.31.2.57.51.93.99.36.47.77,1.13,1.56,1.88.32-.04.68-.1,1.01-.21-.12.43-1.68-.75-1.97-1.08-.3-.32-.42-.48-.39-.57.04-.09.23-.1.48-.11.51,0,1.33.07,1.72.12.09.24.23.51.3.78,2.29.41,2.45-.85,1.7-1.84-.72-1.11-1.98-2.35-1.85-3.35l3.33.83-2.76-2.04c.87-.43,2.72-.73,3.22.25,1.64-1.43-1.18-1.26.65-2.49.29-.14.45-.07.58.05l-.99-1.4c.7.27,2.35-.23,1.87.63,1.92-2.5-2.5-4.04.03-4.98l.2.21c-1.12-3.47-2.44-.34-5.31-2.94l6.03-1.75-2.44-.34c.09-.36.27-1.07,1.25-.94-1.67-1.33-1.06.23-2.64-.55,2.22-1.73-1.04-4.76,2.85-5.15-1.86-.62-1.43,1.65-2.72-.19,4.19-.53-.72-2.13,1.2-3.71,2.16.48,1.02,1.98,2.94.4-3.65-.95.8-3.07.1-4.4-2.91-.06-1.21-2.89-2.18-5.12.98.14,1.6-4.2,2.65-6.27l.49.06c-2.94-.4-2.38-2.54-2.99-4.1,1.76.06,2.45.34,3.24,1.19v-1.47c-.96-.35-1.45-.8-1.79-1.75l2.2.37c-.12-1.95-2.59-3.93-1.12-6.44-2.05-.14-5.7,2-7.07-.66,1.11-.1,3-.2,3.46.5-.15-.23-.92-.81-.45-1.27l1.86,1.06c.82-1.14-1.56-.6-1.38-1.51,1.58.02,1.13-.68,2.38-.55.15.23-.65.8-.03,1.15.28-1.03,1.22-2.28,2.42-2.69-.9.09-2.13,0-2.33-.75-.12-1.95,1.9-.67,2.71-1.81-1.1-.47.04-1.72-2.32-1.75.01-.57,1.11-.68,1.75-.9-1.04-1.01-.3-4.71-2.81-3.58l-.17.26s-.05-.11-.1-.17h0s0,0,0,0c-2.35-3.31,1.34-6.87.33-10.15h.79c-.9-1.95-.53-4.36-2.23-5.76,0-.58,1.44-1.37,2.38-1.12-.59-1.5-1.48-1.67-.18-3.83,1.38,1.51,1.22-.52,1.01,1.54.68-1.95,1.95-2.39-.21-4.48,2.02.71,2.55-1.47,1.94-2.39l-1.45,1.36c-.3-1.04-.12-1.95.06-2.87l2.66.5c3.24-3.98-5.51-7.18-.09-10.21-1.86-1.05-1.31,2.16-3.49,1.22.36-1.83,4.18-3.74,4.19-4.31,1.47-2.51-3.89-2.34-2.88-4.97-.95.34-3.48.65-4.38-1.31.35-1.83,3.98-2.25,4.74-1.1.08.44-.22.65-.54.63.34.59.75,1.37,1.78.64l-.95-.24c.24-.23.42-.56.57-.91.15-.39.28-.64.42-1.27.29-1.06.65-1.91,1.43-1.49-.9-2.23-1.56-.72-2.05.85.69-1.86.72-3.4.55-4.8-.19-1.42-.46-2.71-.68-4.65-.23.8-1.16,1.78-1.29,1.25-.31-2.67-1.18-2.88-1.82-2.8-.74.12-1.42.45-2.53-.6-.05-1.13.65-1.64,1.03-2.01.37-.36.4-.74-1.35-1.38-.51-1.02-.28-1.56.34-1.89.61-.34,1.52-.35,2.16-.33-1.98-.47-3.15-1.48-4.24-2.59-1.06-1.1-2.03-2.23-3.03-2.65.74-.07,1.51-.19,2.27-.17-.68-.01-1.27-.02-1.8-.1-.53-.09-1.04-.17-1.55-.26.19.67.35,1.35.47,2.03-.97-.53-1.98-.62-1.73-1.41-.79.55-.75,1.37-.9,2.21-.14.84-.49,1.73-1.69,2.55-1.16-1-4.17,1.03-4.35-1.5.09.02.17.05.25.07.12.02.23.03.33.04.21.02.39.03.53.02.3-.01.49-.08.61-.18.24-.2.19-.56.11-.95-.15-.79-.47-1.74,1.73-1.94-.88.3-1.86.29-3.08-.04-.18-.28.18-.52.53-.67-.29-.14-.65-.25-.81-.34-.14-.09-.27-.15-.38-.19-.23-.08-.4-.06-.55.02-.29.16-.45.59-.61,1.08-.33.99-.67,2.25-2.09,2.22.36-1.42-.66-2.69-1.12-2.39,1.14.03.55,2.37-.5,3.46-1.82-1.11-1.98.82-2.93.69l1.09.52c-.37,1.42-1.28,1.23-2.55,1.68-.11-1.11,1.15-.76.7-1.25-1.41,2.5-3.18-2.58-5.14-.9-.91-.96-.09-2.67-.89-3.32-2.2,1.84-2.38-1.95-4.7-.42.67,1.91.78,1.44-.85,3.3l3.8-1.34-2.44,2.78c1.15.03,2.42-1.2,3.11-.88-1.16,1.56-1.04,1.08-.49,2.67-1.57-2.86-3.11,1.67-4.93-.27l.06-4.72c-2.73-2.11-4.85,2.42-8.39,1.24l1.14.82c-.48,1.88-2.19.26-3.34,1.02.11-1.58-.61-2.15-1.1-3.14.06,1.17-2.59-.11-2.92,3.05l-1.58-2.08c-2.86-.85-3.27,4.5-6.02,3.96.83-1.72-.42-2.84,1.42-4.06-.92-.02-1.74-.3-1.76.79-.54-.99-2.55,2.13-3.39.63-.39.69-.51,2.35-1.54,2.22-.11-.32,0-.78,0-.78,0,.78-1.61,1.06-.71,2.81-2.83-4.93-7.91.36-10.37-3.87-2,.53-4.42,1.04-6.24,1.15.12-.47,0-.79.35-.62-2.51-1.47-1.54,4.54-4.4,2.89-1.46-2.55,1.52-1.38.61-2.35-.4-5.2-3.45.71-5.37-2.32l.47-.31c-1.47-1.77-3.58,1.97-5.98,1.6,0,0,.12-.46.01-.78-1.64,2.65-4.75,3.53-7.06,4.26.72-2.03,1.05-1.08.61-3.14-1.03.29.3,3.32-1.76,3.9-.67-1.11-2.16-2.09-2.36-4.29l1.95-.12c-1-2.85-2.52.1-3.55-.4l.13-1.25c-2.99.4-3.03,3.55-6.24,3.32l.33.95c-1.75,3.11-1.47-1.75-3.22.56l-.53-3.16c-1.16.76-4.05,3.05-6.13,3.65,1.18-2.34,3.6-3.54,5.11-4.93-1.15-.02-3.9.23-4.5,1.79.46-.3,1.04-1.08,1.5-.59-1.43,2.48-3.21,3.7-5.6,3.65.1-1.53-.32-2.39-1.17-2.9-.84-.5-2.07-.68-3.37-.72-1.31-.05-2.64.05-3.91.02-1.29-.02-2.54-.13-3.76-.85-2.22,2.38-4.57,4.23-6.6,6.8-2,2.56-3.51,5.72-3.22,9.93,1.19-.54,1.79-.6,2.11-.48.31.13.33.46.36.86.05.81.11,1.87,2.56,1.78.08.37.13.68.16.94.03.22.04.36.03.5-.02.25-.12.38-.28.43l-2.92,3.33c-1.42.79-1.08-1.04-2.18-.94-.38,2.4-2.07,1.01-3.37,2.6,1.75-.33,2.51.84,1.84,2.21l2.26-1.93c2.6,3.36-4.11,2.9-1.53,6.29l-1.54-1.07c.91,1.74-.03,6.41,3.9,8.11-.56.31-1.9.71-2.26-.05-.59,4.15,4.18,9.24,1.76,12.47l-1.2-.31c.35.77,2.25,1.35,1.04,2.32-.49-.05-1.19-.31-1.26.05.41.41,2.1,2.06,1.4,3.08l-1.35-.88c-1.57,4.05,3.28,6.21,4.1,9.61-3.52,0-4.67,3.18-5.24,4.77l-.5-.06c-.44,4.71,2.92,8.01,4.3,12.37-3.82,2.71-1.6,9.18-3.74,13.54.64-.67,2.74.11,3.1.88-.71,1.02,2.44,2.83-.79,2.66l.06-.36c-3.17.77-2.32,2.87-2.41,4.51l4.22.27c-6.14,4.29,2.26,11.24-3.25,13.58,1.06,1.03,1.04,2.32,2.1,3.34l-2.27-.06c-.58,2.87-.86,4.3-.32,7.85l-1.62-.72c-.07,1,1.56,1.63,3.23,2.24.83.31,1.68.61,2.32.95.64.45,1.08,1.01,1.12,1.65-1.13.36-2.25.77-3.38,1.23,0,2.93-.52,6.01.3,8.86.72,2.85,2.69,5.42,5.81,6.04-.4.32-1.18.95-1.98.39.93,1,2.76,3.11,4.86,4.01,1.03.45,2.06.63,2.86.39.81-.26,1.36-.9,1.58-2.05-.28.71-.08,1.18.45,1.43.55.22,1.41.28,2.42.07,1.01-.18,2.12-.55,3.14-.95.51-.2.99-.4,1.44-.6.42-.2.93-.38,1.1-.55-.11.74-.15,1.49-.35,2.23,1.71-2.85,1.67-3.63,3.92-4.42.53.29.46,1.78-.24,1.21,1.75,1.17,1.37-2.11,3.49-.92l-.79,1.42c1.8.17,1.66-.59,2.65-2.25,1.13-.89,3.42.56,3.69,2.58.24-1.23,1.23-2.87,2.29-2.29.14.76-.24,1.23-.44,1.46,3.02,1.52,4.49-2.59,6.56-.4.04.74.18,1.11.35,1.33-2.4-.06-4.33-.18-4.15-.34,0,2.06,1.94,2.42.4,5.25,1.55-1.55,4.21-4.92,6.1-3.95.09.2.18.39.25.71l-.2.23c.44.2.83.01,1.19-.33.6.34.98.59,1.56.62.22,1.7,2.22.92,3.19,1-.08-2.25,1.18-1.89,0-3.74.15.16-.18.27-.82.36-.15.07-.32.1-.41.23.02-.06.04-.13.07-.2-.63.06-1.46.12-2.4.15.76-1.14,1.56-2.1,2.63-.86.5-1.45,1.04-2.93,1.35-3.63,1.32,3.14,3.87,4.83,4.22,6.77,2.95-1.26,6.94-.83,8.8-5.06.84-.54.96,1.21,1.28,1.88-.48.42-1.06.36-1.32.97,1.68-1.08,4.97-.42,5.37-3.37,2.11,1.33-1.19,2.72,1.72,2.23l-.39.9c5.71,4.72,9.28-7.53,15.61-1.48-.44-.37-.66-.54-.75-1.04,7.22,2.67,14.87-2.51,21.99,1.73,2.02.85,2.24-1.03,3.48-2.46l.44,2.42,2.11-2.79c3-2.04,5.19,5.93,8.98,2.07l-.49-1.63c1.36.31,4.31-.96,4.09.91.14-.3.45-1.69.98-.84l.04,1.26,3.35-2.17c2.59.91-.41,5.02,3.38,5.26,1.41-.49,4.01-3.68,3.48-4.53-.57-.06-1.45-.79-1.49-2.05l1.29-.66c.23-3.72,1.22-7.54-1.94-10.14l-2.2,2.28-.71-1.81,1.85-.11c-1.05-1.7-1.72-.2-2.46.84-.18-.96-.49-1.63-.92-1.99l-2.16,3.56c-.26-1.46.97-2.89-.48-3.7-1.01,1.65.97,3.27-.7,4.35-1.05-1.69-.75-3.07-1.98-1.62-.17-.96.09-1.57.58-1.99-1.1,1.15-2.91.49-3.48,2.47-1.1-2.09-3.71.54-3.61-2.98-.35.84-1.94,2.77-2.95,2.91,1.85-4.22-3.78-.25-3.29-4.77-1.37,3.8-4.93,1.69-7.35,3.79.14-.3.4-.91.61-.72-1.36-.32-1.76-1.46-2.63-2.18-.17,3.13-2.3,3.85-3.44,5.78-1.67-3.02,1.01-3.68.49-6.59.08,2.54-2.9,2.54-2.33,4.65-1.28-1.87-1.1-.91-1.76-3.51-.22,3.92-1.19.67-2.25,3.07-1.85-1.93-.48-3.67-2.51-2.48-.97-1.2.84-2.59.84-2.59ZM49.08,142.99v-.04c.42-.05.77-.1,1-.13-.21.03-.49.08-1,.17ZM45.02,143.02c.49.09,1.11.1,1.76.09.14.78-.01,1.58-.42,1.54.22-.52-.73-.97-1.34-1.62ZM53.6,158.61c-.64.32-.86-.12-.95-.58.3-.04.66-.12,1.12-.27.02-.08.06-.18.08-.28-.06.43-.13.83-.25,1.13Z"/>
        <path class="cls-1" d="M54.76,155.66c.09-.05.14-.14.26-.16-.13-.2-.26-.37-.38-.51-.08.24-.16.49-.23.7.12-.01.24-.02.35-.04Z"/>
        <path class="cls-1" d="M153.73,72.87l.05-.09c-.09.07-.18.14-.32.18.11-.06.18-.06.27-.09Z"/>
        <polygon class="cls-1" points="23.2 121.61 22.63 121.61 23.13 121.97 23.2 121.61"/>
        <path class="cls-1" d="M146.01,95.21c-.2.04-.4.13-.57.29.15-.01.35-.14.57-.29Z"/>
        <path class="cls-1" d="M145.51,104.87l-.8,1.36c.46-.59.67-1.02.8-1.36Z"/>
        <path class="cls-1" d="M144.39,112.29c.39.09.69.12.96.15,0,0,0,0,.01-.01l-.98-.13Z"/>
        <path class="cls-1" d="M129.72,20.17c-.1.01-.2.04-.29.1-.67.44-.22.26.29-.1Z"/>
        <path class="cls-1" d="M147.01,29.41c-.41-.37-.81-.74-1.06-1.13-.17.63-.22,1.11,1.06,1.13Z"/>
        <path class="cls-1" d="M90.51,22.88s0,0,0-.04c-.08,0-.16,0-.24,0l.24.04Z"/>
        <path class="cls-1" d="M145.98,26.65c-.45.63-.35,1.15-.04,1.63.15-.51.38-1.12.04-1.63Z"/>
        <path class="cls-1" d="M143.28,141.39h-.1c.1.05.17.09.32.17-.07-.06-.15-.12-.22-.17Z"/>
        <path class="cls-1" d="M143.5,141.56c.08.06.13.12.19.19.02-.03.03-.06-.19-.19Z"/>
        <path class="cls-1" d="M144.06,142.22c-.1-.17-.23-.33-.37-.47-.03.05-.11.05.37.47Z"/>
        <path class="cls-1" d="M144.41,134.62l-.82-.11c.17.06.43.1.82.11Z"/>
        <path class="cls-1" d="M144.18,131.64c-.19.71-1.74,1.79-1.23,2.78l.65.09c-1.21-.47,1.96-2.2.58-2.87Z"/>
        <path class="cls-1" d="M154.26,119.18l-.65,2.5c.87-.44,2.04-1.01,2.25.13,2.59-3.15-1.94.65-1.59-2.63Z"/>
        <path class="cls-1" d="M155.52,111.42c.4,1.34,1.26-.02,1.75.06-.79-.85-.99-1.06-1.75-.06Z"/>
        <path class="cls-1" d="M155.53,55.37l2.05.14c-.29-1.04-.79,0-2.05-.14Z"/>
        <polygon class="cls-1" points="144.95 44.66 143.68 45.67 145.55 46.15 144.95 44.66"/>
        <polygon class="cls-1" points="159.53 38.33 159.82 38.78 159.08 37.05 159.53 38.33"/>
        <path class="cls-1" d="M79.61,3.13l.31,2.52c.7-.45.85-3.28-.31-2.52Z"/>
        <path class="cls-1" d="M38.97,5.69c-.44-1.26-1.59-2.07-2.29-.83.91.17,1.82,1.16,2.29.83Z"/>
        <polygon class="cls-1" points="2.99 110.83 2.15 110.01 2.85 111.55 2.99 110.83"/>
      </g>
    </g>
  </g>
</svg>